%
M48
M72
T01C0.0236
T02C0.0240
T03C0.0276
T04C0.0400
%
T01
X6680Y1680
X7180Y4180
X6680Y5180
X10180Y6180
X12680Y5180
X16180Y4680
X17180Y4680
X18180Y4180
X16180Y2180
X21680Y7180
X20680Y8180
X19180Y8180
X18680Y9180
X17680Y8680
X17680Y9680
X17180Y10180
X18680Y10180
X20180Y12680
X19180Y13680
X22680Y14180
X23680Y14180
X23680Y13180
X28180Y11180
X30180Y12180
X28180Y9680
X29180Y8180
X30180Y8180
X31680Y9180
X35180Y9680
X37680Y10180
X37680Y11180
X45680Y13180
X49180Y12180
X49680Y12680
X49680Y13680
X53180Y12680
X54680Y12180
X55180Y12680
X56180Y12180
X55180Y11180
X54680Y10680
X53680Y9680
X51180Y9180
X49180Y10180
X49180Y11180
X55180Y8180
X57180Y7180
X55680Y6180
X55680Y4180
X60180Y3180
X52180Y1680
X50680Y3680
X48680Y3680
X49680Y5680
X49180Y7180
X50180Y7680
X59180Y8180
X62180Y11180
X60680Y12180
X61180Y13180
X57180Y13680
X56680Y15180
X53680Y16180
X51180Y16680
X52180Y17680
X49180Y18680
X49680Y20180
X53680Y19180
X55180Y18680
X55680Y17680
X57680Y17680
X59680Y17180
X61180Y17180
X61680Y17680
X58180Y19680
X58180Y20680
X59180Y21180
X58180Y21680
X56680Y21180
X55680Y21680
X55180Y20680
X54680Y20180
X47180Y16680
X50680Y15680
X41180Y19180
X39680Y16680
X34180Y18680
X33180Y17180
X26680Y20180
X26680Y21180
X26680Y22180
X19180Y20180
X18180Y21180
X18680Y22180
X21180Y18680
X13680Y14180
X14680Y13680
X15680Y13180
X10180Y12680
X8180Y13680
X10180Y15180
X9180Y15680
X6180Y15680
X4180Y16680
X3180Y17180
X2180Y18680
X4680Y19680
X4180Y22680
X3180Y23180
X2180Y23680
X4180Y25180
X5180Y24680
X4680Y26180
X9180Y27180
X18180Y27180
X3680Y13180
X7180Y10680
X8180Y10680
X8180Y8680
X8180Y7680
X9180Y7680
X6180Y8680
X4680Y7680
X2180Y8180
X15180Y7680
X36680Y4180
X39180Y6680
X50180Y23680
X50180Y24680
X52180Y24680
X52180Y25680
X59180Y23680
T02
X60680Y24680
X59680Y25680
X60680Y22680
X53680Y22680
X52680Y21180
X53680Y20180
X52680Y19180
X59680Y18680
X39680Y20180
X40180Y23680
X33680Y24180
X26680Y23680
X20680Y24180
X26180Y19180
X30680Y13680
X22180Y10180
X21180Y10180
X20180Y10180
X14680Y9180
X11180Y10180
X10180Y10180
X9180Y10180
X5180Y9180
X9180Y4180
X10180Y4180
X11180Y4180
X20680Y4180
X21680Y4180
X22680Y4180
X36680Y1680
X39680Y1180
X42680Y3680
X42180Y6680
X49180Y7680
X53680Y6680
X57680Y5680
X58680Y7180
X13180Y19180
X6180Y20680
X6180Y27180
T03
X47680Y14180
X47680Y12180
T04
X60180Y14180
X61180Y14180
X61180Y15180
X60180Y15180
X60180Y16180
X61180Y16180
X61680Y18680
X61680Y19680
X61680Y20680
X61680Y21680
X61680Y22680
X61680Y23680
X61680Y24680
X61680Y25680
X58180Y25680
X58180Y24680
X58180Y23680
X58180Y22680
X50180Y2680
X49180Y2680
X48180Y2680
X47180Y2680
M30
