G75*
G70*
%OFA0B0*%
%FSLAX24Y24*%
%IPPOS*%
%LPD*%
%AMOC8*
5,1,8,0,0,1.08239X$1,22.5*
%
%ADD10R,0.0493X0.0454*%
%ADD11R,0.0454X0.0493*%
%ADD12C,0.0160*%
%ADD13R,0.1090X0.1090*%
%ADD14R,0.0611X0.0926*%
%ADD15R,0.0651X0.0217*%
%ADD16R,0.0560X0.0280*%
%ADD17R,0.0280X0.0560*%
%ADD18C,0.0660*%
%ADD19C,0.0660*%
%ADD20OC8,0.0660*%
%ADD21C,0.0710*%
%ADD22R,0.0375X0.0375*%
%ADD23R,0.0532X0.0277*%
%ADD24R,0.0158X0.0188*%
%ADD25R,0.0188X0.0158*%
%ADD26R,0.0926X0.0611*%
%ADD27R,0.0690X0.0198*%
%ADD28R,0.0926X0.1044*%
%ADD29R,0.0847X0.0257*%
%ADD30C,0.0456*%
%ADD31C,0.0460*%
D10*
X017345Y003180D03*
X018015Y003180D03*
X017015Y009180D03*
X016345Y009180D03*
X007015Y009680D03*
X006345Y009680D03*
X011845Y015680D03*
X012515Y015680D03*
X012515Y016680D03*
X011845Y016680D03*
X007015Y020180D03*
X006345Y020180D03*
X011845Y022680D03*
X012515Y022680D03*
X012515Y023680D03*
X011845Y023680D03*
X007015Y026180D03*
X006345Y026180D03*
X020845Y023680D03*
X021515Y023680D03*
X025345Y021180D03*
X026015Y021180D03*
X026015Y020180D03*
X025345Y020180D03*
X033845Y023680D03*
X034515Y023680D03*
X038845Y020680D03*
X039515Y020680D03*
X039515Y019680D03*
X038845Y019680D03*
X050845Y020180D03*
X051515Y020180D03*
X051515Y018680D03*
X050845Y018680D03*
X050845Y017680D03*
X051515Y017680D03*
X051515Y021680D03*
X050845Y021680D03*
X031515Y013180D03*
X030845Y013180D03*
X051845Y009680D03*
X052515Y009680D03*
X055345Y009680D03*
X056015Y009680D03*
X057345Y009680D03*
X058015Y009680D03*
X058845Y010680D03*
X059515Y010680D03*
X059515Y011680D03*
X058845Y011680D03*
X058845Y012680D03*
X059515Y012680D03*
D11*
X049680Y009015D03*
X049680Y008345D03*
X045680Y011345D03*
X045680Y012015D03*
X045680Y014345D03*
X045680Y015015D03*
X031680Y007515D03*
X030680Y007515D03*
X030680Y006845D03*
X031680Y006845D03*
X029180Y006845D03*
X028180Y006845D03*
X028180Y007515D03*
X029180Y007515D03*
X022680Y005515D03*
X022680Y004845D03*
X021680Y004845D03*
X020680Y004845D03*
X020680Y005515D03*
X021680Y005515D03*
X011180Y005515D03*
X011180Y004845D03*
X010180Y004845D03*
X009180Y004845D03*
X009180Y005515D03*
X010180Y005515D03*
X006680Y003015D03*
X006680Y002345D03*
X009180Y010845D03*
X010180Y010845D03*
X010180Y011515D03*
X009180Y011515D03*
X011180Y011515D03*
X011180Y010845D03*
X020180Y010845D03*
X020180Y011515D03*
X021180Y011515D03*
X022180Y011515D03*
X022180Y010845D03*
X021180Y010845D03*
X036680Y003015D03*
X036680Y002345D03*
X042680Y002345D03*
X042680Y003015D03*
X045680Y003015D03*
X045680Y002345D03*
X057180Y002845D03*
X057180Y003515D03*
X057180Y004345D03*
X057180Y005015D03*
X058680Y005015D03*
X058680Y004345D03*
D12*
X018651Y006669D02*
X018351Y006669D01*
X018351Y006868D02*
X018651Y006868D01*
X018651Y007067D02*
X018351Y007067D01*
X018351Y007277D02*
X018651Y007277D01*
X018651Y007475D02*
X018351Y007475D01*
X018351Y007675D02*
X018651Y007675D01*
X018187Y007850D02*
X018187Y008150D01*
X017987Y008150D02*
X017987Y007850D01*
X017789Y007850D02*
X017789Y008150D01*
X017579Y008150D02*
X017579Y007850D01*
X017380Y007850D02*
X017380Y008150D01*
X017181Y008150D02*
X017181Y007850D01*
X017017Y007675D02*
X016717Y007675D01*
X016717Y007475D02*
X017017Y007475D01*
X017017Y007277D02*
X016717Y007277D01*
X016717Y007067D02*
X017017Y007067D01*
X017017Y006868D02*
X016717Y006868D01*
X016717Y006669D02*
X017017Y006669D01*
X017181Y006495D02*
X017181Y006195D01*
X017380Y006195D02*
X017380Y006495D01*
X017579Y006495D02*
X017579Y006195D01*
X017789Y006195D02*
X017789Y006495D01*
X017987Y006495D02*
X017987Y006195D01*
X018187Y006195D02*
X018187Y006495D01*
X007651Y006669D02*
X007351Y006669D01*
X007351Y006868D02*
X007651Y006868D01*
X007651Y007067D02*
X007351Y007067D01*
X007351Y007277D02*
X007651Y007277D01*
X007651Y007475D02*
X007351Y007475D01*
X007351Y007675D02*
X007651Y007675D01*
X007187Y007850D02*
X007187Y008150D01*
X006987Y008150D02*
X006987Y007850D01*
X006789Y007850D02*
X006789Y008150D01*
X006579Y008150D02*
X006579Y007850D01*
X006380Y007850D02*
X006380Y008150D01*
X006181Y008150D02*
X006181Y007850D01*
X006017Y007675D02*
X005717Y007675D01*
X005717Y007475D02*
X006017Y007475D01*
X006017Y007277D02*
X005717Y007277D01*
X005717Y007067D02*
X006017Y007067D01*
X006017Y006868D02*
X005717Y006868D01*
X005717Y006669D02*
X006017Y006669D01*
X006181Y006495D02*
X006181Y006195D01*
X006380Y006195D02*
X006380Y006495D01*
X006579Y006495D02*
X006579Y006195D01*
X006789Y006195D02*
X006789Y006495D01*
X006987Y006495D02*
X006987Y006195D01*
X007187Y006195D02*
X007187Y006495D01*
X007187Y011695D02*
X007187Y011995D01*
X006987Y011995D02*
X006987Y011695D01*
X006789Y011695D02*
X006789Y011995D01*
X006579Y011995D02*
X006579Y011695D01*
X006380Y011695D02*
X006380Y011995D01*
X006181Y011995D02*
X006181Y011695D01*
X006017Y012169D02*
X005717Y012169D01*
X005717Y012368D02*
X006017Y012368D01*
X006017Y012567D02*
X005717Y012567D01*
X005717Y012777D02*
X006017Y012777D01*
X006017Y012975D02*
X005717Y012975D01*
X005717Y013175D02*
X006017Y013175D01*
X006181Y013350D02*
X006181Y013650D01*
X006380Y013650D02*
X006380Y013350D01*
X006579Y013350D02*
X006579Y013650D01*
X006789Y013650D02*
X006789Y013350D01*
X006987Y013350D02*
X006987Y013650D01*
X007187Y013650D02*
X007187Y013350D01*
X007351Y013175D02*
X007651Y013175D01*
X007651Y012975D02*
X007351Y012975D01*
X007351Y012777D02*
X007651Y012777D01*
X007651Y012567D02*
X007351Y012567D01*
X007351Y012368D02*
X007651Y012368D01*
X007651Y012169D02*
X007351Y012169D01*
X016717Y012169D02*
X017017Y012169D01*
X017017Y012368D02*
X016717Y012368D01*
X016717Y012567D02*
X017017Y012567D01*
X017017Y012777D02*
X016717Y012777D01*
X016717Y012975D02*
X017017Y012975D01*
X017017Y013175D02*
X016717Y013175D01*
X017181Y013350D02*
X017181Y013650D01*
X017380Y013650D02*
X017380Y013350D01*
X017579Y013350D02*
X017579Y013650D01*
X017789Y013650D02*
X017789Y013350D01*
X017987Y013350D02*
X017987Y013650D01*
X018187Y013650D02*
X018187Y013350D01*
X018351Y013175D02*
X018651Y013175D01*
X018651Y012975D02*
X018351Y012975D01*
X018351Y012777D02*
X018651Y012777D01*
X018651Y012567D02*
X018351Y012567D01*
X018351Y012368D02*
X018651Y012368D01*
X018651Y012169D02*
X018351Y012169D01*
X018187Y011995D02*
X018187Y011695D01*
X017987Y011695D02*
X017987Y011995D01*
X017789Y011995D02*
X017789Y011695D01*
X017579Y011695D02*
X017579Y011995D01*
X017380Y011995D02*
X017380Y011695D01*
X017181Y011695D02*
X017181Y011995D01*
D13*
X017688Y012676D03*
X006688Y012676D03*
X006688Y007176D03*
X017688Y007176D03*
D14*
X039680Y003310D03*
X039680Y002050D03*
X047180Y007550D03*
X047180Y008810D03*
X053680Y003310D03*
X053680Y002050D03*
D15*
X054607Y005017D03*
X054607Y005273D03*
X054607Y005528D03*
X054607Y005784D03*
X054607Y006040D03*
X054607Y006296D03*
X054607Y006552D03*
X054607Y006808D03*
X054607Y007064D03*
X054607Y007320D03*
X054607Y007576D03*
X054607Y007832D03*
X054607Y008087D03*
X054607Y008343D03*
X051753Y008343D03*
X051753Y008087D03*
X051753Y007832D03*
X051753Y007576D03*
X051753Y007320D03*
X051753Y007064D03*
X051753Y006808D03*
X051753Y006552D03*
X051753Y006296D03*
X051753Y006040D03*
X051753Y005784D03*
X051753Y005528D03*
X051753Y005273D03*
X051753Y005017D03*
D16*
X051990Y014078D03*
X051990Y014393D03*
X051990Y014708D03*
X051990Y015023D03*
X051990Y015337D03*
X051990Y015652D03*
X051990Y015967D03*
X051990Y016282D03*
X055370Y016282D03*
X055370Y015967D03*
X055370Y015652D03*
X055370Y015337D03*
X055370Y015023D03*
X055370Y014708D03*
X055370Y014393D03*
X055370Y014078D03*
D17*
X054782Y013490D03*
X054467Y013490D03*
X054152Y013490D03*
X053837Y013490D03*
X053523Y013490D03*
X053208Y013490D03*
X052893Y013490D03*
X052578Y013490D03*
X052578Y016870D03*
X052893Y016870D03*
X053208Y016870D03*
X053523Y016870D03*
X053837Y016870D03*
X054152Y016870D03*
X054467Y016870D03*
X054782Y016870D03*
D18*
X061380Y018680D02*
X061980Y018680D01*
X061980Y019680D02*
X061380Y019680D01*
X061380Y020680D02*
X061980Y020680D01*
X061980Y021680D02*
X061380Y021680D01*
X061380Y022680D02*
X061980Y022680D01*
X061980Y023680D02*
X061380Y023680D01*
X061380Y024680D02*
X061980Y024680D01*
X061980Y025680D02*
X061380Y025680D01*
X058480Y025680D02*
X057880Y025680D01*
X057880Y024680D02*
X058480Y024680D01*
X058480Y023680D02*
X057880Y023680D01*
X057880Y022680D02*
X058480Y022680D01*
X050180Y002980D02*
X050180Y002380D01*
X049180Y002380D02*
X049180Y002980D01*
X048180Y002980D02*
X048180Y002380D01*
X047180Y002380D02*
X047180Y002980D01*
D19*
X061180Y014180D03*
D20*
X060180Y014180D03*
X060180Y015180D03*
X061180Y015180D03*
X061180Y016180D03*
X060180Y016180D03*
D21*
X047680Y014180D03*
X047680Y012180D03*
D22*
X056180Y008475D03*
X057180Y008475D03*
X057180Y007885D03*
X056180Y007885D03*
X060385Y010680D03*
X060975Y010680D03*
D23*
X041192Y007054D03*
X041192Y006680D03*
X041192Y006306D03*
X040168Y006306D03*
X040168Y007054D03*
D24*
X034672Y020294D03*
X034475Y020294D03*
X034278Y020294D03*
X034082Y020294D03*
X033885Y020294D03*
X033688Y020294D03*
X033688Y022066D03*
X033885Y022066D03*
X034082Y022066D03*
X034278Y022066D03*
X034475Y022066D03*
X034672Y022066D03*
X021672Y022066D03*
X021475Y022066D03*
X021278Y022066D03*
X021082Y022066D03*
X020885Y022066D03*
X020688Y022066D03*
X020688Y020294D03*
X020885Y020294D03*
X021082Y020294D03*
X021278Y020294D03*
X021475Y020294D03*
X021672Y020294D03*
X007172Y018566D03*
X006975Y018566D03*
X006778Y018566D03*
X006582Y018566D03*
X006385Y018566D03*
X006188Y018566D03*
X006188Y016794D03*
X006385Y016794D03*
X006582Y016794D03*
X006778Y016794D03*
X006975Y016794D03*
X007172Y016794D03*
X007172Y022794D03*
X006975Y022794D03*
X006778Y022794D03*
X006582Y022794D03*
X006385Y022794D03*
X006188Y022794D03*
X006188Y024566D03*
X006385Y024566D03*
X006582Y024566D03*
X006778Y024566D03*
X006975Y024566D03*
X007172Y024566D03*
D25*
X007369Y024369D03*
X007369Y024172D03*
X007369Y023975D03*
X007369Y023778D03*
X007369Y023582D03*
X007369Y023385D03*
X007369Y023188D03*
X007369Y022991D03*
X005991Y022991D03*
X005991Y023188D03*
X005991Y023385D03*
X005991Y023582D03*
X005991Y023778D03*
X005991Y023975D03*
X005991Y024172D03*
X005991Y024369D03*
X005991Y018369D03*
X005991Y018172D03*
X005991Y017975D03*
X005991Y017778D03*
X005991Y017582D03*
X005991Y017385D03*
X005991Y017188D03*
X005991Y016991D03*
X007369Y016991D03*
X007369Y017188D03*
X007369Y017385D03*
X007369Y017582D03*
X007369Y017778D03*
X007369Y017975D03*
X007369Y018172D03*
X007369Y018369D03*
X020491Y020491D03*
X020491Y020688D03*
X020491Y020885D03*
X020491Y021082D03*
X020491Y021278D03*
X020491Y021475D03*
X020491Y021672D03*
X020491Y021869D03*
X021869Y021869D03*
X021869Y021672D03*
X021869Y021475D03*
X021869Y021278D03*
X021869Y021082D03*
X021869Y020885D03*
X021869Y020688D03*
X021869Y020491D03*
X033491Y020491D03*
X033491Y020688D03*
X033491Y020885D03*
X033491Y021082D03*
X033491Y021278D03*
X033491Y021475D03*
X033491Y021672D03*
X033491Y021869D03*
X034869Y021869D03*
X034869Y021672D03*
X034869Y021475D03*
X034869Y021278D03*
X034869Y021082D03*
X034869Y020885D03*
X034869Y020688D03*
X034869Y020491D03*
D26*
X038050Y023680D03*
X039310Y023680D03*
X025810Y023680D03*
X024550Y023680D03*
X012310Y026180D03*
X011050Y026180D03*
X011050Y019180D03*
X012310Y019180D03*
D27*
X031078Y011576D03*
X031078Y011320D03*
X031078Y011064D03*
X031078Y010808D03*
X031078Y010552D03*
X031078Y010296D03*
X031078Y010040D03*
X031078Y009784D03*
X033282Y009784D03*
X033282Y010040D03*
X033282Y010296D03*
X033282Y010552D03*
X033282Y010808D03*
X033282Y011064D03*
X033282Y011320D03*
X033282Y011576D03*
D28*
X060393Y008334D03*
X062479Y008334D03*
X062479Y005026D03*
X060393Y005026D03*
D29*
X060294Y006050D03*
X060294Y006365D03*
X060294Y006680D03*
X060294Y006995D03*
X060294Y007310D03*
D30*
X006680Y001680D03*
X007180Y004180D03*
X006680Y005180D03*
X010180Y006180D03*
X012680Y005180D03*
X016180Y004680D03*
X017180Y004680D03*
X018180Y004180D03*
X016180Y002180D03*
X021680Y007180D03*
X020680Y008180D03*
X019180Y008180D03*
X018680Y009180D03*
X017680Y008680D03*
X017680Y009680D03*
X017180Y010180D03*
X018680Y010180D03*
X020180Y012680D03*
X019180Y013680D03*
X022680Y014180D03*
X023680Y014180D03*
X023680Y013180D03*
X028180Y011180D03*
X030180Y012180D03*
X028180Y009680D03*
X029180Y008180D03*
X030180Y008180D03*
X031680Y009180D03*
X035180Y009680D03*
X037680Y010180D03*
X037680Y011180D03*
X045680Y013180D03*
X049180Y012180D03*
X049680Y012680D03*
X049680Y013680D03*
X053180Y012680D03*
X054680Y012180D03*
X055180Y012680D03*
X056180Y012180D03*
X055180Y011180D03*
X054680Y010680D03*
X053680Y009680D03*
X051180Y009180D03*
X049180Y010180D03*
X049180Y011180D03*
X055180Y008180D03*
X057180Y007180D03*
X055680Y006180D03*
X055680Y004180D03*
X060180Y003180D03*
X052180Y001680D03*
X050680Y003680D03*
X048680Y003680D03*
X049680Y005680D03*
X049180Y007180D03*
X050180Y007680D03*
X059180Y008180D03*
X062180Y011180D03*
X060680Y012180D03*
X061180Y013180D03*
X057180Y013680D03*
X056680Y015180D03*
X053680Y016180D03*
X051180Y016680D03*
X052180Y017680D03*
X049180Y018680D03*
X049680Y020180D03*
X053680Y019180D03*
X055180Y018680D03*
X055680Y017680D03*
X057680Y017680D03*
X059680Y017180D03*
X061180Y017180D03*
X061680Y017680D03*
X058180Y019680D03*
X058180Y020680D03*
X059180Y021180D03*
X058180Y021680D03*
X056680Y021180D03*
X055680Y021680D03*
X055180Y020680D03*
X054680Y020180D03*
X047180Y016680D03*
X050680Y015680D03*
X041180Y019180D03*
X039680Y016680D03*
X034180Y018680D03*
X033180Y017180D03*
X026680Y020180D03*
X026680Y021180D03*
X026680Y022180D03*
X019180Y020180D03*
X018180Y021180D03*
X018680Y022180D03*
X021180Y018680D03*
X013680Y014180D03*
X014680Y013680D03*
X015680Y013180D03*
X010180Y012680D03*
X008180Y013680D03*
X010180Y015180D03*
X009180Y015680D03*
X006180Y015680D03*
X004180Y016680D03*
X003180Y017180D03*
X002180Y018680D03*
X004680Y019680D03*
X004180Y022680D03*
X003180Y023180D03*
X002180Y023680D03*
X004180Y025180D03*
X005180Y024680D03*
X004680Y026180D03*
X009180Y027180D03*
X018180Y027180D03*
X003680Y013180D03*
X007180Y010680D03*
X008180Y010680D03*
X008180Y008680D03*
X008180Y007680D03*
X009180Y007680D03*
X006180Y008680D03*
X004680Y007680D03*
X002180Y008180D03*
X015180Y007680D03*
X036680Y004180D03*
X039180Y006680D03*
X050180Y023680D03*
X050180Y024680D03*
X052180Y024680D03*
X052180Y025680D03*
X059180Y023680D03*
D31*
X060680Y024680D03*
X059680Y025680D03*
X060680Y022680D03*
X053680Y022680D03*
X052680Y021180D03*
X053680Y020180D03*
X052680Y019180D03*
X059680Y018680D03*
X039680Y020180D03*
X040180Y023680D03*
X033680Y024180D03*
X026680Y023680D03*
X020680Y024180D03*
X026180Y019180D03*
X030680Y013680D03*
X022180Y010180D03*
X021180Y010180D03*
X020180Y010180D03*
X014680Y009180D03*
X011180Y010180D03*
X010180Y010180D03*
X009180Y010180D03*
X005180Y009180D03*
X009180Y004180D03*
X010180Y004180D03*
X011180Y004180D03*
X020680Y004180D03*
X021680Y004180D03*
X022680Y004180D03*
X036680Y001680D03*
X039680Y001180D03*
X042680Y003680D03*
X042180Y006680D03*
X049180Y007680D03*
X053680Y006680D03*
X057680Y005680D03*
X058680Y007180D03*
X013180Y019180D03*
X006180Y020680D03*
X006180Y027180D03*
M02*
